<?xml version="1.0" ?><svg style="enable-background:new 0 0 91.635 72.824;" version="1.1" viewBox="0 0 91.635 72.824" xml:space="preserve" xmlns="http://www.w3.org/2000/svg" xmlns:xlink="http://www.w3.org/1999/xlink"><g id="chat"><path d="M0,72.824L12.421,46.77c-3.786-4.877-5.704-10.579-5.704-16.97c0-9.335,4.712-17.143,13.627-22.577   C27.983,2.565,38.218,0,49.165,0C63.571,0,76.672,4.508,84.21,12.06c4.939,4.947,7.437,10.932,7.425,17.786   c-0.017,9.946-4.717,18.279-13.591,24.099c-7.654,5.019-17.907,7.783-28.869,7.783c-6.609,0-13.133-1.038-18.926-3.007   c-9.608,3.688-24.41,11.153-24.562,11.23L0,72.824z M49.165,4.351c-10.159,0-19.59,2.339-26.556,6.586   c-5.265,3.21-11.541,9.088-11.541,18.862c0,5.814,1.871,10.943,5.561,15.247l0.921,1.075L9.368,63.284   c5.497-2.663,13.895-6.601,20.089-8.916l0.746-0.279l0.749,0.269c5.515,1.975,11.816,3.019,18.223,3.019   c10.124,0,19.529-2.511,26.483-7.071c5.293-3.471,11.607-9.84,11.626-20.467c0.01-5.657-2.061-10.605-6.153-14.705   C74.391,8.382,62.441,4.351,49.165,4.351z"/></g><g id="Слой_1"/></svg>